<mxfile host="app.diagrams.net" agent="Mozilla/5.0 (Macintosh; Intel Mac OS X 10_15_7) AppleWebKit/537.36 (KHTML, like Gecko) Chrome/135.0.0.0 Safari/537.36" version="26.2.14">
  <diagram name="第 1 页" id="uAahMOgUjO8XhGGUCmuN">
    <mxGraphModel dx="1045" dy="643" grid="1" gridSize="10" guides="1" tooltips="1" connect="1" arrows="1" fold="1" page="1" pageScale="1" pageWidth="827" pageHeight="1169" math="0" shadow="0">
      <root>
        <mxCell id="0" />
        <mxCell id="1" parent="0" />
        <mxCell id="kIQ052omoaKMphS0CrH7-4" style="edgeStyle=orthogonalEdgeStyle;rounded=0;orthogonalLoop=1;jettySize=auto;html=1;exitX=1;exitY=0.5;exitDx=0;exitDy=0;entryX=0;entryY=0.5;entryDx=0;entryDy=0;" edge="1" parent="1" source="kIQ052omoaKMphS0CrH7-2" target="kIQ052omoaKMphS0CrH7-3">
          <mxGeometry relative="1" as="geometry" />
        </mxCell>
        <mxCell id="kIQ052omoaKMphS0CrH7-2" value="用户当前Query&lt;div&gt;Context: 历史对话,&amp;nbsp;&lt;span style=&quot;background-color: transparent; color: light-dark(rgb(0, 0, 0), rgb(255, 255, 255));&quot;&gt;挂车商品&lt;/span&gt;&lt;/div&gt;" style="rounded=1;whiteSpace=wrap;html=1;" vertex="1" parent="1">
          <mxGeometry x="160" y="290" width="170" height="80" as="geometry" />
        </mxCell>
        <mxCell id="kIQ052omoaKMphS0CrH7-10" style="edgeStyle=orthogonalEdgeStyle;rounded=0;orthogonalLoop=1;jettySize=auto;html=1;exitX=0.5;exitY=1;exitDx=0;exitDy=0;entryX=0.5;entryY=0;entryDx=0;entryDy=0;" edge="1" parent="1" source="kIQ052omoaKMphS0CrH7-3" target="kIQ052omoaKMphS0CrH7-9">
          <mxGeometry relative="1" as="geometry" />
        </mxCell>
        <mxCell id="kIQ052omoaKMphS0CrH7-14" style="edgeStyle=orthogonalEdgeStyle;rounded=0;orthogonalLoop=1;jettySize=auto;html=1;exitX=1;exitY=0.5;exitDx=0;exitDy=0;entryX=0;entryY=0.5;entryDx=0;entryDy=0;" edge="1" parent="1" source="kIQ052omoaKMphS0CrH7-3" target="kIQ052omoaKMphS0CrH7-5">
          <mxGeometry relative="1" as="geometry" />
        </mxCell>
        <mxCell id="kIQ052omoaKMphS0CrH7-15" style="edgeStyle=orthogonalEdgeStyle;rounded=0;orthogonalLoop=1;jettySize=auto;html=1;exitX=1;exitY=0.5;exitDx=0;exitDy=0;entryX=0;entryY=0.5;entryDx=0;entryDy=0;" edge="1" parent="1" source="kIQ052omoaKMphS0CrH7-3" target="kIQ052omoaKMphS0CrH7-8">
          <mxGeometry relative="1" as="geometry" />
        </mxCell>
        <mxCell id="kIQ052omoaKMphS0CrH7-3" value="Query Analysis" style="rounded=1;whiteSpace=wrap;html=1;fillColor=#d5e8d4;strokeColor=#82b366;" vertex="1" parent="1">
          <mxGeometry x="400" y="300" width="120" height="60" as="geometry" />
        </mxCell>
        <mxCell id="kIQ052omoaKMphS0CrH7-5" value="Intent: L1 → L2" style="text;html=1;align=center;verticalAlign=middle;whiteSpace=wrap;rounded=0;strokeColor=#666666;fillColor=#f5f5f5;fontColor=#333333;" vertex="1" parent="1">
          <mxGeometry x="560" y="290" width="120" height="30" as="geometry" />
        </mxCell>
        <mxCell id="kIQ052omoaKMphS0CrH7-8" value="key_words&lt;div&gt;前置filter条件&lt;/div&gt;" style="text;html=1;align=center;verticalAlign=middle;whiteSpace=wrap;rounded=0;strokeColor=#666666;fillColor=#f5f5f5;fontColor=#333333;" vertex="1" parent="1">
          <mxGeometry x="560" y="340" width="120" height="30" as="geometry" />
        </mxCell>
        <mxCell id="kIQ052omoaKMphS0CrH7-12" style="edgeStyle=orthogonalEdgeStyle;rounded=0;orthogonalLoop=1;jettySize=auto;html=1;exitX=0.5;exitY=1;exitDx=0;exitDy=0;entryX=0.5;entryY=0;entryDx=0;entryDy=0;" edge="1" parent="1" source="kIQ052omoaKMphS0CrH7-9" target="kIQ052omoaKMphS0CrH7-11">
          <mxGeometry relative="1" as="geometry" />
        </mxCell>
        <mxCell id="kIQ052omoaKMphS0CrH7-9" value="Answer" style="text;html=1;align=center;verticalAlign=middle;whiteSpace=wrap;rounded=0;strokeColor=#666666;fillColor=#f5f5f5;fontColor=#333333;" vertex="1" parent="1">
          <mxGeometry x="400" y="380" width="120" height="30" as="geometry" />
        </mxCell>
        <mxCell id="kIQ052omoaKMphS0CrH7-13" style="edgeStyle=orthogonalEdgeStyle;rounded=0;orthogonalLoop=1;jettySize=auto;html=1;exitX=1;exitY=0.5;exitDx=0;exitDy=0;entryX=0.5;entryY=1;entryDx=0;entryDy=0;" edge="1" parent="1" source="kIQ052omoaKMphS0CrH7-11" target="kIQ052omoaKMphS0CrH7-8">
          <mxGeometry relative="1" as="geometry" />
        </mxCell>
        <mxCell id="kIQ052omoaKMphS0CrH7-11" value="Query Analysis" style="rounded=1;whiteSpace=wrap;html=1;fillColor=#d5e8d4;strokeColor=#82b366;" vertex="1" parent="1">
          <mxGeometry x="400" y="430" width="120" height="60" as="geometry" />
        </mxCell>
      </root>
    </mxGraphModel>
  </diagram>
</mxfile>
